%TF.GenerationSoftware,KiCad,Pcbnew,9.0.2*%
%TF.CreationDate,2025-07-23T19:33:37+01:00*%
%TF.ProjectId,USB_SUPPLY,5553425f-5355-4505-904c-592e6b696361,rev?*%
%TF.SameCoordinates,Original*%
%TF.FileFunction,Soldermask,Top*%
%TF.FilePolarity,Negative*%
%FSLAX46Y46*%
G04 Gerber Fmt 4.6, Leading zero omitted, Abs format (unit mm)*
G04 Created by KiCad (PCBNEW 9.0.2) date 2025-07-23 19:33:37*
%MOMM*%
%LPD*%
G01*
G04 APERTURE LIST*
G04 Aperture macros list*
%AMRoundRect*
0 Rectangle with rounded corners*
0 $1 Rounding radius*
0 $2 $3 $4 $5 $6 $7 $8 $9 X,Y pos of 4 corners*
0 Add a 4 corners polygon primitive as box body*
4,1,4,$2,$3,$4,$5,$6,$7,$8,$9,$2,$3,0*
0 Add four circle primitives for the rounded corners*
1,1,$1+$1,$2,$3*
1,1,$1+$1,$4,$5*
1,1,$1+$1,$6,$7*
1,1,$1+$1,$8,$9*
0 Add four rect primitives between the rounded corners*
20,1,$1+$1,$2,$3,$4,$5,0*
20,1,$1+$1,$4,$5,$6,$7,0*
20,1,$1+$1,$6,$7,$8,$9,0*
20,1,$1+$1,$8,$9,$2,$3,0*%
G04 Aperture macros list end*
%ADD10C,0.010000*%
%ADD11R,0.711200X0.254000*%
%ADD12R,0.254000X0.711200*%
%ADD13R,2.743200X2.743200*%
%ADD14RoundRect,0.102000X-0.150000X-0.450000X0.150000X-0.450000X0.150000X0.450000X-0.150000X0.450000X0*%
%ADD15C,0.804000*%
%ADD16O,1.004000X1.604000*%
G04 APERTURE END LIST*
D10*
%TO.C,J1*%
X117022000Y-69436000D02*
X117044000Y-69437000D01*
X117066000Y-69440000D01*
X117088000Y-69444000D01*
X117110000Y-69449000D01*
X117131000Y-69456000D01*
X117152000Y-69463000D01*
X117173000Y-69472000D01*
X117193000Y-69481000D01*
X117212000Y-69492000D01*
X117231000Y-69504000D01*
X117250000Y-69516000D01*
X117267000Y-69530000D01*
X117284000Y-69544000D01*
X117301000Y-69559000D01*
X117316000Y-69576000D01*
X117330000Y-69593000D01*
X117344000Y-69610000D01*
X117356000Y-69629000D01*
X117368000Y-69647000D01*
X117379000Y-69667000D01*
X117388000Y-69687000D01*
X117397000Y-69708000D01*
X117404000Y-69729000D01*
X117411000Y-69750000D01*
X117416000Y-69772000D01*
X117420000Y-69794000D01*
X117423000Y-69816000D01*
X117424000Y-69838000D01*
X117425000Y-69860000D01*
X117424000Y-69882000D01*
X117423000Y-69904000D01*
X117420000Y-69926000D01*
X117416000Y-69948000D01*
X117411000Y-69970000D01*
X117404000Y-69991000D01*
X117397000Y-70012000D01*
X117388000Y-70033000D01*
X117379000Y-70053000D01*
X117368000Y-70072000D01*
X117356000Y-70091000D01*
X117344000Y-70110000D01*
X117330000Y-70127000D01*
X117316000Y-70144000D01*
X117301000Y-70161000D01*
X117284000Y-70176000D01*
X117267000Y-70190000D01*
X117250000Y-70204000D01*
X117231000Y-70216000D01*
X117212000Y-70228000D01*
X117193000Y-70239000D01*
X117173000Y-70248000D01*
X117152000Y-70257000D01*
X117131000Y-70264000D01*
X117110000Y-70271000D01*
X117088000Y-70276000D01*
X117066000Y-70280000D01*
X117044000Y-70283000D01*
X117022000Y-70284000D01*
X117000000Y-70285000D01*
X116700000Y-70285000D01*
X116678000Y-70284000D01*
X116656000Y-70283000D01*
X116634000Y-70280000D01*
X116612000Y-70276000D01*
X116590000Y-70271000D01*
X116569000Y-70264000D01*
X116548000Y-70257000D01*
X116527000Y-70248000D01*
X116507000Y-70239000D01*
X116487000Y-70228000D01*
X116469000Y-70216000D01*
X116450000Y-70204000D01*
X116433000Y-70190000D01*
X116416000Y-70176000D01*
X116399000Y-70161000D01*
X116384000Y-70144000D01*
X116370000Y-70127000D01*
X116356000Y-70110000D01*
X116344000Y-70091000D01*
X116332000Y-70072000D01*
X116321000Y-70053000D01*
X116312000Y-70033000D01*
X116303000Y-70012000D01*
X116296000Y-69991000D01*
X116289000Y-69970000D01*
X116284000Y-69948000D01*
X116280000Y-69926000D01*
X116277000Y-69904000D01*
X116276000Y-69882000D01*
X116275000Y-69860000D01*
X116276000Y-69838000D01*
X116277000Y-69816000D01*
X116280000Y-69794000D01*
X116284000Y-69772000D01*
X116289000Y-69750000D01*
X116296000Y-69729000D01*
X116303000Y-69708000D01*
X116312000Y-69687000D01*
X116321000Y-69667000D01*
X116332000Y-69647000D01*
X116344000Y-69629000D01*
X116356000Y-69610000D01*
X116370000Y-69593000D01*
X116384000Y-69576000D01*
X116399000Y-69559000D01*
X116416000Y-69544000D01*
X116433000Y-69530000D01*
X116450000Y-69516000D01*
X116469000Y-69504000D01*
X116487000Y-69492000D01*
X116507000Y-69481000D01*
X116527000Y-69472000D01*
X116548000Y-69463000D01*
X116569000Y-69456000D01*
X116590000Y-69449000D01*
X116612000Y-69444000D01*
X116634000Y-69440000D01*
X116656000Y-69437000D01*
X116678000Y-69436000D01*
X116700000Y-69435000D01*
X117000000Y-69435000D01*
X117022000Y-69436000D01*
G36*
X117022000Y-69436000D02*
G01*
X117044000Y-69437000D01*
X117066000Y-69440000D01*
X117088000Y-69444000D01*
X117110000Y-69449000D01*
X117131000Y-69456000D01*
X117152000Y-69463000D01*
X117173000Y-69472000D01*
X117193000Y-69481000D01*
X117212000Y-69492000D01*
X117231000Y-69504000D01*
X117250000Y-69516000D01*
X117267000Y-69530000D01*
X117284000Y-69544000D01*
X117301000Y-69559000D01*
X117316000Y-69576000D01*
X117330000Y-69593000D01*
X117344000Y-69610000D01*
X117356000Y-69629000D01*
X117368000Y-69647000D01*
X117379000Y-69667000D01*
X117388000Y-69687000D01*
X117397000Y-69708000D01*
X117404000Y-69729000D01*
X117411000Y-69750000D01*
X117416000Y-69772000D01*
X117420000Y-69794000D01*
X117423000Y-69816000D01*
X117424000Y-69838000D01*
X117425000Y-69860000D01*
X117424000Y-69882000D01*
X117423000Y-69904000D01*
X117420000Y-69926000D01*
X117416000Y-69948000D01*
X117411000Y-69970000D01*
X117404000Y-69991000D01*
X117397000Y-70012000D01*
X117388000Y-70033000D01*
X117379000Y-70053000D01*
X117368000Y-70072000D01*
X117356000Y-70091000D01*
X117344000Y-70110000D01*
X117330000Y-70127000D01*
X117316000Y-70144000D01*
X117301000Y-70161000D01*
X117284000Y-70176000D01*
X117267000Y-70190000D01*
X117250000Y-70204000D01*
X117231000Y-70216000D01*
X117212000Y-70228000D01*
X117193000Y-70239000D01*
X117173000Y-70248000D01*
X117152000Y-70257000D01*
X117131000Y-70264000D01*
X117110000Y-70271000D01*
X117088000Y-70276000D01*
X117066000Y-70280000D01*
X117044000Y-70283000D01*
X117022000Y-70284000D01*
X117000000Y-70285000D01*
X116700000Y-70285000D01*
X116678000Y-70284000D01*
X116656000Y-70283000D01*
X116634000Y-70280000D01*
X116612000Y-70276000D01*
X116590000Y-70271000D01*
X116569000Y-70264000D01*
X116548000Y-70257000D01*
X116527000Y-70248000D01*
X116507000Y-70239000D01*
X116487000Y-70228000D01*
X116469000Y-70216000D01*
X116450000Y-70204000D01*
X116433000Y-70190000D01*
X116416000Y-70176000D01*
X116399000Y-70161000D01*
X116384000Y-70144000D01*
X116370000Y-70127000D01*
X116356000Y-70110000D01*
X116344000Y-70091000D01*
X116332000Y-70072000D01*
X116321000Y-70053000D01*
X116312000Y-70033000D01*
X116303000Y-70012000D01*
X116296000Y-69991000D01*
X116289000Y-69970000D01*
X116284000Y-69948000D01*
X116280000Y-69926000D01*
X116277000Y-69904000D01*
X116276000Y-69882000D01*
X116275000Y-69860000D01*
X116276000Y-69838000D01*
X116277000Y-69816000D01*
X116280000Y-69794000D01*
X116284000Y-69772000D01*
X116289000Y-69750000D01*
X116296000Y-69729000D01*
X116303000Y-69708000D01*
X116312000Y-69687000D01*
X116321000Y-69667000D01*
X116332000Y-69647000D01*
X116344000Y-69629000D01*
X116356000Y-69610000D01*
X116370000Y-69593000D01*
X116384000Y-69576000D01*
X116399000Y-69559000D01*
X116416000Y-69544000D01*
X116433000Y-69530000D01*
X116450000Y-69516000D01*
X116469000Y-69504000D01*
X116487000Y-69492000D01*
X116507000Y-69481000D01*
X116527000Y-69472000D01*
X116548000Y-69463000D01*
X116569000Y-69456000D01*
X116590000Y-69449000D01*
X116612000Y-69444000D01*
X116634000Y-69440000D01*
X116656000Y-69437000D01*
X116678000Y-69436000D01*
X116700000Y-69435000D01*
X117000000Y-69435000D01*
X117022000Y-69436000D01*
G37*
%TD*%
D11*
%TO.C,U2*%
X131566900Y-65826900D03*
X131566900Y-66326899D03*
X131566900Y-66826900D03*
X131566900Y-67326900D03*
X131566900Y-67826901D03*
X131566900Y-68326900D03*
D12*
X132260000Y-69020000D03*
X132759999Y-69020000D03*
X133260000Y-69020000D03*
X133760000Y-69020000D03*
X134260001Y-69020000D03*
X134760000Y-69020000D03*
D11*
X135453100Y-68326900D03*
X135453100Y-67826901D03*
X135453100Y-67326900D03*
X135453100Y-66826900D03*
X135453100Y-66326899D03*
X135453100Y-65826900D03*
D12*
X134760000Y-65133800D03*
X134260001Y-65133800D03*
X133760000Y-65133800D03*
X133260000Y-65133800D03*
X132759999Y-65133800D03*
X132260000Y-65133800D03*
D13*
X133510000Y-67076900D03*
%TD*%
D14*
%TO.C,J1*%
X110500000Y-69300000D03*
X111000000Y-69300000D03*
X111500000Y-69300000D03*
X112000000Y-69300000D03*
X112500000Y-69300000D03*
X113000000Y-69300000D03*
X113500000Y-69300000D03*
X114000000Y-69300000D03*
X114500000Y-69300000D03*
X115000000Y-69300000D03*
X115500000Y-69300000D03*
X116000000Y-69300000D03*
D15*
X116050000Y-70510000D03*
X115650000Y-71210000D03*
X114850000Y-71210000D03*
X114450000Y-70510000D03*
X114050000Y-71210000D03*
X113650000Y-70510000D03*
X112850000Y-70510000D03*
X112450000Y-71210000D03*
X112050000Y-70510000D03*
X111650000Y-71210000D03*
X110850000Y-71210000D03*
X110450000Y-70510000D03*
D16*
X109120000Y-71100000D03*
X117380000Y-71100000D03*
X108760000Y-75500000D03*
X117740000Y-75500000D03*
%TD*%
M02*
