M48
; DRILL file {KiCad 9.0.2} date 2025-07-23T19:33:37+0100
; FORMAT={-:-/ absolute / inch / decimal}
; #@! TF.CreationDate,2025-07-23T19:33:37+01:00
; #@! TF.GenerationSoftware,Kicad,Pcbnew,9.0.2
; #@! TF.FileFunction,Plated,1,2,PTH
FMAT,2
INCH
; #@! TA.AperFunction,Plated,PTH,ComponentDrill
T1C0.0157
; #@! TA.AperFunction,Plated,PTH,ComponentDrill
T2C0.0197
%
G90
G05
T1
X4.3484Y-2.776
X4.3642Y-2.8035
X4.3957Y-2.8035
X4.4114Y-2.776
X4.4272Y-2.8035
X4.4429Y-2.776
X4.4744Y-2.776
X4.4902Y-2.8035
X4.5059Y-2.776
X4.5217Y-2.8035
X4.5531Y-2.8035
X4.5689Y-2.776
T2
G00X4.2819Y-2.9606
M15
G01X4.2819Y-2.9843
M16
G05
G00X4.2961Y-2.7874
M15
G01X4.2961Y-2.811
M16
G05
G00X4.6213Y-2.7874
M15
G01X4.6213Y-2.811
M16
G05
G00X4.6354Y-2.9606
M15
G01X4.6354Y-2.9843
M16
G05
M30
