%TF.GenerationSoftware,KiCad,Pcbnew,9.0.2*%
%TF.CreationDate,2025-07-23T19:33:37+01:00*%
%TF.ProjectId,USB_SUPPLY,5553425f-5355-4505-904c-592e6b696361,rev?*%
%TF.SameCoordinates,Original*%
%TF.FileFunction,Legend,Bot*%
%TF.FilePolarity,Positive*%
%FSLAX46Y46*%
G04 Gerber Fmt 4.6, Leading zero omitted, Abs format (unit mm)*
G04 Created by KiCad (PCBNEW 9.0.2) date 2025-07-23 19:33:37*
%MOMM*%
%LPD*%
G01*
G04 APERTURE LIST*
%ADD10C,0.010000*%
%ADD11C,0.650000*%
%ADD12C,0.804000*%
%ADD13O,1.004000X1.604000*%
G04 APERTURE END LIST*
%LPC*%
D10*
%TO.C,J1*%
X117022000Y-69436000D02*
X117044000Y-69437000D01*
X117066000Y-69440000D01*
X117088000Y-69444000D01*
X117110000Y-69449000D01*
X117131000Y-69456000D01*
X117152000Y-69463000D01*
X117173000Y-69472000D01*
X117193000Y-69481000D01*
X117212000Y-69492000D01*
X117231000Y-69504000D01*
X117250000Y-69516000D01*
X117267000Y-69530000D01*
X117284000Y-69544000D01*
X117301000Y-69559000D01*
X117316000Y-69576000D01*
X117330000Y-69593000D01*
X117344000Y-69610000D01*
X117356000Y-69629000D01*
X117368000Y-69647000D01*
X117379000Y-69667000D01*
X117388000Y-69687000D01*
X117397000Y-69708000D01*
X117404000Y-69729000D01*
X117411000Y-69750000D01*
X117416000Y-69772000D01*
X117420000Y-69794000D01*
X117423000Y-69816000D01*
X117424000Y-69838000D01*
X117425000Y-69860000D01*
X117424000Y-69882000D01*
X117423000Y-69904000D01*
X117420000Y-69926000D01*
X117416000Y-69948000D01*
X117411000Y-69970000D01*
X117404000Y-69991000D01*
X117397000Y-70012000D01*
X117388000Y-70033000D01*
X117379000Y-70053000D01*
X117368000Y-70072000D01*
X117356000Y-70091000D01*
X117344000Y-70110000D01*
X117330000Y-70127000D01*
X117316000Y-70144000D01*
X117301000Y-70161000D01*
X117284000Y-70176000D01*
X117267000Y-70190000D01*
X117250000Y-70204000D01*
X117231000Y-70216000D01*
X117212000Y-70228000D01*
X117193000Y-70239000D01*
X117173000Y-70248000D01*
X117152000Y-70257000D01*
X117131000Y-70264000D01*
X117110000Y-70271000D01*
X117088000Y-70276000D01*
X117066000Y-70280000D01*
X117044000Y-70283000D01*
X117022000Y-70284000D01*
X117000000Y-70285000D01*
X116700000Y-70285000D01*
X116678000Y-70284000D01*
X116656000Y-70283000D01*
X116634000Y-70280000D01*
X116612000Y-70276000D01*
X116590000Y-70271000D01*
X116569000Y-70264000D01*
X116548000Y-70257000D01*
X116527000Y-70248000D01*
X116507000Y-70239000D01*
X116487000Y-70228000D01*
X116469000Y-70216000D01*
X116450000Y-70204000D01*
X116433000Y-70190000D01*
X116416000Y-70176000D01*
X116399000Y-70161000D01*
X116384000Y-70144000D01*
X116370000Y-70127000D01*
X116356000Y-70110000D01*
X116344000Y-70091000D01*
X116332000Y-70072000D01*
X116321000Y-70053000D01*
X116312000Y-70033000D01*
X116303000Y-70012000D01*
X116296000Y-69991000D01*
X116289000Y-69970000D01*
X116284000Y-69948000D01*
X116280000Y-69926000D01*
X116277000Y-69904000D01*
X116276000Y-69882000D01*
X116275000Y-69860000D01*
X116276000Y-69838000D01*
X116277000Y-69816000D01*
X116280000Y-69794000D01*
X116284000Y-69772000D01*
X116289000Y-69750000D01*
X116296000Y-69729000D01*
X116303000Y-69708000D01*
X116312000Y-69687000D01*
X116321000Y-69667000D01*
X116332000Y-69647000D01*
X116344000Y-69629000D01*
X116356000Y-69610000D01*
X116370000Y-69593000D01*
X116384000Y-69576000D01*
X116399000Y-69559000D01*
X116416000Y-69544000D01*
X116433000Y-69530000D01*
X116450000Y-69516000D01*
X116469000Y-69504000D01*
X116487000Y-69492000D01*
X116507000Y-69481000D01*
X116527000Y-69472000D01*
X116548000Y-69463000D01*
X116569000Y-69456000D01*
X116590000Y-69449000D01*
X116612000Y-69444000D01*
X116634000Y-69440000D01*
X116656000Y-69437000D01*
X116678000Y-69436000D01*
X116700000Y-69435000D01*
X117000000Y-69435000D01*
X117022000Y-69436000D01*
G36*
X117022000Y-69436000D02*
G01*
X117044000Y-69437000D01*
X117066000Y-69440000D01*
X117088000Y-69444000D01*
X117110000Y-69449000D01*
X117131000Y-69456000D01*
X117152000Y-69463000D01*
X117173000Y-69472000D01*
X117193000Y-69481000D01*
X117212000Y-69492000D01*
X117231000Y-69504000D01*
X117250000Y-69516000D01*
X117267000Y-69530000D01*
X117284000Y-69544000D01*
X117301000Y-69559000D01*
X117316000Y-69576000D01*
X117330000Y-69593000D01*
X117344000Y-69610000D01*
X117356000Y-69629000D01*
X117368000Y-69647000D01*
X117379000Y-69667000D01*
X117388000Y-69687000D01*
X117397000Y-69708000D01*
X117404000Y-69729000D01*
X117411000Y-69750000D01*
X117416000Y-69772000D01*
X117420000Y-69794000D01*
X117423000Y-69816000D01*
X117424000Y-69838000D01*
X117425000Y-69860000D01*
X117424000Y-69882000D01*
X117423000Y-69904000D01*
X117420000Y-69926000D01*
X117416000Y-69948000D01*
X117411000Y-69970000D01*
X117404000Y-69991000D01*
X117397000Y-70012000D01*
X117388000Y-70033000D01*
X117379000Y-70053000D01*
X117368000Y-70072000D01*
X117356000Y-70091000D01*
X117344000Y-70110000D01*
X117330000Y-70127000D01*
X117316000Y-70144000D01*
X117301000Y-70161000D01*
X117284000Y-70176000D01*
X117267000Y-70190000D01*
X117250000Y-70204000D01*
X117231000Y-70216000D01*
X117212000Y-70228000D01*
X117193000Y-70239000D01*
X117173000Y-70248000D01*
X117152000Y-70257000D01*
X117131000Y-70264000D01*
X117110000Y-70271000D01*
X117088000Y-70276000D01*
X117066000Y-70280000D01*
X117044000Y-70283000D01*
X117022000Y-70284000D01*
X117000000Y-70285000D01*
X116700000Y-70285000D01*
X116678000Y-70284000D01*
X116656000Y-70283000D01*
X116634000Y-70280000D01*
X116612000Y-70276000D01*
X116590000Y-70271000D01*
X116569000Y-70264000D01*
X116548000Y-70257000D01*
X116527000Y-70248000D01*
X116507000Y-70239000D01*
X116487000Y-70228000D01*
X116469000Y-70216000D01*
X116450000Y-70204000D01*
X116433000Y-70190000D01*
X116416000Y-70176000D01*
X116399000Y-70161000D01*
X116384000Y-70144000D01*
X116370000Y-70127000D01*
X116356000Y-70110000D01*
X116344000Y-70091000D01*
X116332000Y-70072000D01*
X116321000Y-70053000D01*
X116312000Y-70033000D01*
X116303000Y-70012000D01*
X116296000Y-69991000D01*
X116289000Y-69970000D01*
X116284000Y-69948000D01*
X116280000Y-69926000D01*
X116277000Y-69904000D01*
X116276000Y-69882000D01*
X116275000Y-69860000D01*
X116276000Y-69838000D01*
X116277000Y-69816000D01*
X116280000Y-69794000D01*
X116284000Y-69772000D01*
X116289000Y-69750000D01*
X116296000Y-69729000D01*
X116303000Y-69708000D01*
X116312000Y-69687000D01*
X116321000Y-69667000D01*
X116332000Y-69647000D01*
X116344000Y-69629000D01*
X116356000Y-69610000D01*
X116370000Y-69593000D01*
X116384000Y-69576000D01*
X116399000Y-69559000D01*
X116416000Y-69544000D01*
X116433000Y-69530000D01*
X116450000Y-69516000D01*
X116469000Y-69504000D01*
X116487000Y-69492000D01*
X116507000Y-69481000D01*
X116527000Y-69472000D01*
X116548000Y-69463000D01*
X116569000Y-69456000D01*
X116590000Y-69449000D01*
X116612000Y-69444000D01*
X116634000Y-69440000D01*
X116656000Y-69437000D01*
X116678000Y-69436000D01*
X116700000Y-69435000D01*
X117000000Y-69435000D01*
X117022000Y-69436000D01*
G37*
%TD*%
D11*
%TO.C,J1*%
X109650000Y-69860000D03*
X116850000Y-69860000D03*
D12*
X116050000Y-70510000D03*
X115650000Y-71210000D03*
X114850000Y-71210000D03*
X114450000Y-70510000D03*
X114050000Y-71210000D03*
X113650000Y-70510000D03*
X112850000Y-70510000D03*
X112450000Y-71210000D03*
X112050000Y-70510000D03*
X111650000Y-71210000D03*
X110850000Y-71210000D03*
X110450000Y-70510000D03*
D13*
X109120000Y-71100000D03*
X117380000Y-71100000D03*
X108760000Y-75500000D03*
X117740000Y-75500000D03*
%TD*%
%LPD*%
M02*
